<svg xmlns="http://www.w3.org/2000/svg" viewBox="0 10.15999984741211 227.8800048828125 43.941505432128906" data-asc="0.8583984375" width="227.8800048828125" height="43.941505432128906"><defs/><g><g fill="#ffffff"><g transform="translate(0, 0)"><path d="M12.60 42.92Q9.72 42.72 6.05 42.72Q2.39 42.72 0 42.92L0 42.04Q4.15 42.04 4.20 40.77L4.39 24.46L0.29 24.46L0.29 23.39L4.39 23.39Q4.39 22.85 4.39 22.31Q4.39 10.16 12.89 10.16Q15.14 10.16 17.48 11.33Q19.82 12.50 19.82 14.40Q19.82 15.67 19.14 16.72Q18.46 17.77 17.04 17.77Q16.06 17.77 15.43 17.02Q14.79 16.26 14.79 15.43Q14.79 14.79 15.23 14.21Q15.67 13.62 16.16 13.43L16.60 13.18Q16.55 11.96 15.38 11.45Q14.21 10.94 12.74 10.94Q10.60 10.94 9.47 12.60Q8.30 14.40 8.35 18.75Q8.35 20.80 8.40 21.73Q8.45 22.66 8.45 23.39L13.09 23.39L13.09 24.46L8.45 24.46L8.74 40.77Q8.79 41.41 9.52 41.75Q10.25 42.09 11.13 42.09Q11.62 42.09 12.60 42.04L12.60 42.92ZM24.85 10.84Q24.66 15.53 24.61 21.39Q24.61 23.73 24.68 30.15Q24.76 36.57 24.76 41.11Q24.85 41.60 26.07 41.85Q27.29 42.09 28.13 42.14L28.13 42.92Q25.98 42.68 23.00 42.68Q19.53 42.68 17.33 42.92L17.33 42.14Q20.56 41.99 20.65 41.11Q20.80 36.47 20.80 28.27Q20.80 19.53 20.65 13.72Q19.43 12.74 17.33 12.74L17.33 11.91Q19.92 11.77 24.85 10.84ZM41.50 42.53Q44.14 42.53 45.61 40.09Q47.07 37.65 47.07 33.06Q47.07 29.25 45.51 26.39Q43.95 23.54 41.41 23.54Q39.70 23.54 38.48 24.46Q37.26 25.39 36.69 26.98Q36.13 28.56 35.86 30.13Q35.60 31.69 35.60 33.40Q35.60 37.45 37.16 39.99Q38.72 42.53 41.50 42.53M40.97 22.56Q45.31 22.56 48.34 25.59Q51.37 28.61 51.37 32.52Q51.37 37.26 48.83 40.50Q46.29 43.75 41.36 43.75Q31.10 43.75 31.10 32.57Q31.10 28.22 34.13 25.39Q37.16 22.56 40.97 22.56ZM75.29 23.58L76.37 27.20L80.18 39.40L84.72 26.37Q84.77 26.17 84.77 25.98Q84.77 25.20 83.79 24.71Q82.81 24.22 81.88 24.17L81.98 23.49Q83.64 23.73 85.89 23.73Q88.18 23.73 89.75 23.49L89.65 24.17Q88.23 24.27 87.18 25.05Q86.13 25.83 85.79 26.86L80.08 43.41L77.78 43.41L72.46 28.81L66.80 43.41L64.55 43.41L58.89 27.20Q58.06 24.61 54.15 24.41L54.25 23.63Q57.52 23.78 60.69 23.78Q63.77 23.78 65.72 23.63L65.63 24.32Q65.58 24.32 65.53 24.32Q64.79 24.32 63.94 24.88Q63.09 25.44 63.09 26.12Q63.09 26.27 63.13 26.42L66.94 39.40L71.73 27.10L72.85 23.58L75.29 23.58ZM100.68 43.55Q99.71 43.55 98.34 43.07Q96.97 42.58 96.04 42.14L95.21 41.60L94.97 43.02L94.04 43.02L93.95 36.18L94.78 36.28Q95.02 38.67 96.53 40.65Q98.05 42.63 100.68 42.63Q105.27 42.63 105.27 38.92Q105.27 36.23 99.46 34.13Q96.97 33.25 95.63 32.03Q94.29 30.81 94.29 28.71Q94.29 25.78 96.29 24.10Q98.29 22.41 101.56 22.41Q102.98 22.41 104.13 22.90Q105.27 23.39 105.71 23.83L106.15 24.32L106.30 22.85L107.23 22.85L107.13 29.00L106.25 29.00Q106.15 28.32 106.10 27.95Q106.05 27.59 105.86 26.73Q105.66 25.88 105.32 25.39Q104.98 24.90 104.44 24.34Q103.91 23.78 103.03 23.51Q102.15 23.24 101.07 23.24Q99.56 23.24 98.61 24.19Q97.66 25.15 97.66 26.61Q97.66 27.44 98.02 28.10Q98.39 28.76 99.05 29.22Q99.71 29.69 100.34 29.96Q100.98 30.22 101.95 30.57Q102.93 30.91 103.42 31.10Q108.79 33.50 108.79 36.96Q108.79 40.48 106.84 42.02Q104.88 43.55 100.68 43.55ZM113.43 23.63Q117.72 23.63 120.51 23.10L120.41 36.47Q120.51 42.09 123.05 42.09Q124.46 42.09 125.78 41.09Q127.10 40.09 127.93 38.92Q128.76 37.74 129.25 36.72L129.74 35.74L129.74 25Q128.81 24.41 126.86 24.41L126.86 23.63Q131.45 23.63 134.03 23.10L133.64 32.81Q133.64 33.89 133.64 35.25L133.69 41.55Q134.28 42.04 136.67 42.14L136.67 42.72Q132.96 42.92 129.98 43.65L129.64 38.33L129.05 39.11Q128.47 39.89 127.54 40.87Q126.61 41.85 125.20 42.65Q123.78 43.46 122.46 43.46Q119.09 43.46 117.72 41.70Q116.36 39.94 116.36 36.57L116.31 24.80Q115.53 24.41 113.43 24.41L113.43 23.63ZM147.17 28.66L146.73 33.74L146.78 39.65Q148.73 41.85 152.05 41.85Q154.10 41.85 155.18 39.62Q156.25 37.40 156.25 33.45Q156.25 29.44 155.22 27.12Q154.20 24.80 152.34 24.80Q149.07 24.80 147.17 28.66M139.06 23.49Q142.87 23.49 146.39 22.56L147.07 27.05Q148.39 24.95 149.85 23.78Q151.32 22.61 153.52 22.61Q156.69 22.61 159.06 25.61Q161.43 28.61 161.43 32.57Q161.43 36.87 158.94 40.04Q156.45 43.21 151.76 43.21Q148.88 43.21 146.73 40.97L146.78 51.71Q147.12 52.25 148.54 52.59Q149.95 52.93 151.12 52.93L151.03 53.61Q148.58 53.47 144.82 53.47Q141.06 53.47 139.16 53.61L139.16 52.93Q142.58 52.83 142.58 51.71Q142.77 45.90 142.82 36.08Q142.82 29.25 142.68 25.24Q140.67 24.32 139.06 24.22L139.06 23.49ZM172.56 28.66L172.12 33.74L172.17 39.65Q174.12 41.85 177.44 41.85Q179.49 41.85 180.57 39.62Q181.64 37.40 181.64 33.45Q181.64 29.44 180.62 27.12Q179.59 24.80 177.73 24.80Q174.46 24.80 172.56 28.66M164.45 23.49Q168.26 23.49 171.78 22.56L172.46 27.05Q173.78 24.95 175.24 23.78Q176.71 22.61 178.91 22.61Q182.08 22.61 184.45 25.61Q186.82 28.61 186.82 32.57Q186.82 36.87 184.33 40.04Q181.84 43.21 177.15 43.21Q174.27 43.21 172.12 40.97L172.17 51.71Q172.51 52.25 173.93 52.59Q175.34 52.93 176.51 52.93L176.42 53.61Q173.97 53.47 170.21 53.47Q166.46 53.47 164.55 53.61L164.55 52.93Q167.97 52.83 167.97 51.71Q168.16 45.90 168.21 36.08Q168.21 29.25 168.07 25.24Q166.06 24.32 164.45 24.22L164.45 23.49ZM197.85 10.84Q197.66 15.53 197.61 21.39Q197.61 23.73 197.68 30.15Q197.75 36.57 197.75 41.11Q197.85 41.60 199.07 41.85Q200.29 42.09 201.12 42.14L201.12 42.92Q198.97 42.68 196.00 42.68Q192.53 42.68 190.33 42.92L190.33 42.14Q193.55 41.99 193.65 41.11Q193.80 36.47 193.80 28.27Q193.80 19.53 193.65 13.72Q192.43 12.74 190.33 12.74L190.33 11.91Q192.92 11.77 197.85 10.84ZM214.31 23.63L214.21 24.32Q213.04 24.32 212.57 24.56Q212.11 24.80 212.11 25.59Q212.11 26.03 212.40 26.90L217.33 39.40L222.61 27.20Q222.95 26.37 222.95 25.78Q222.95 25.24 222.68 24.90Q222.41 24.56 221.80 24.44Q221.19 24.32 220.75 24.29Q220.31 24.27 219.48 24.27L219.58 23.58Q221.29 23.78 223.97 23.78Q226.66 23.78 227.88 23.54L227.78 24.22Q225.88 24.22 225.44 24.61Q224.76 25.24 223.88 27.54L215.09 48.44Q214.01 51.03 212.30 52.54Q210.40 54.15 207.86 54.10Q206.20 54.10 204.66 53.00Q203.13 51.90 203.13 50.34Q203.13 48.78 203.91 48.02Q204.69 47.27 205.76 47.27Q206.98 47.27 207.96 47.88Q208.94 48.49 208.94 49.66Q208.94 51.37 206.98 52.15Q207.67 52.69 209.03 52.73Q209.81 52.73 211.47 51.27Q213.38 49.46 215.28 43.75L207.81 26.51Q207.32 25.24 206.10 24.80Q205.27 24.51 203.32 24.32L203.32 23.63Q205.42 23.78 208.45 23.78Q212.11 23.78 214.31 23.63Z"/></g></g></g></svg>