<?xml version="1.0" encoding="UTF-8"?>
<svg version="1.1" xmlns="http://www.w3.org/2000/svg" width="653" height="659">
<path d="M0 0 C215.49 0 430.98 0 653 0 C653 217.47 653 434.94 653 659 C437.51 659 222.02 659 0 659 C0 441.53 0 224.06 0 0 Z " fill="#0C1722" transform="translate(0,0)"/>
<path d="M0 0 C1.20720703 -0.02900391 2.41441406 -0.05800781 3.65820312 -0.08789062 C17.72154497 -0.18676756 27.78446117 4.47795429 38.03515625 14.03515625 C48.51680337 25.37463638 48.70308716 37.76876962 48.1875 52.3125 C47.46218315 62.4907168 43.79197485 72.45171195 36.125 79.4375 C30.33153103 84.20022909 24.88220416 84.82026614 17.546875 84.6875 C9.81743315 83.82467858 4.1784681 80.11532114 -0.65625 74.15625 C-3.46830791 69.67215766 -4.08004621 65.77067319 -4.19140625 60.515625 C-4.22556641 59.22785156 -4.25972656 57.94007812 -4.29492188 56.61328125 C-4.32226741 55.2630339 -4.34895232 53.91277301 -4.375 52.5625 C-4.43275279 49.90082222 -4.49819808 47.23958101 -4.56640625 44.578125 C-4.59033447 43.40024414 -4.6142627 42.22236328 -4.63891602 41.00878906 C-4.50922436 38.39570321 -4.50922436 38.39570321 -5.8125 37.3125 C-10.80787993 36.71615232 -16.09427913 36.60618891 -20.48876953 39.36474609 C-24.42996801 42.55717667 -27.66653462 46.35389702 -30.8125 50.3125 C-31.51503906 51.18519531 -32.21757812 52.05789062 -32.94140625 52.95703125 C-37.65320596 59.58204553 -39.72986784 66.72885933 -41.76953125 74.4921875 C-42.8125 78.3125 -42.8125 78.3125 -43.86328125 80.7109375 C-45.60165965 85.47538201 -45.88946815 90.58272221 -46.4921875 95.59765625 C-47.23115573 101.26587845 -48.36880809 106.74850497 -49.74609375 112.29296875 C-51.86204433 120.91931314 -53.123507 129.56815908 -54.19555664 138.37866211 C-54.50039989 140.87827898 -54.82041477 143.37560921 -55.14257812 145.87304688 C-56.27828696 154.85308306 -57.12079054 163.76622873 -57.47973633 172.81225586 C-57.83289978 176.52707929 -58.75305477 179.73998077 -59.8125 183.3125 C-60.28547761 185.94888731 -60.71898411 188.56622262 -61.1015625 191.21484375 C-61.26378799 192.29869102 -61.26378799 192.29869102 -61.42929077 193.4044342 C-61.76972343 195.6856666 -62.10371748 197.96778612 -62.4375 200.25 C-62.66884375 201.80800618 -62.9006106 203.36594961 -63.1328125 204.92382812 C-63.69759924 208.71934449 -64.25661837 212.51566963 -64.8125 216.3125 C-64.16183563 216.30139694 -63.51117126 216.29029388 -62.84078979 216.27885437 C-56.06001532 216.1681154 -49.27949829 216.0927719 -42.49804688 216.0378418 C-39.96831831 216.01271956 -37.43866218 215.97861579 -34.90917969 215.93530273 C-31.27000037 215.87455445 -27.63178188 215.84626615 -23.9921875 215.82421875 C-22.86384491 215.79841232 -21.73550232 215.7726059 -20.57296753 215.74601746 C-11.79779645 215.74289296 -11.79779645 215.74289296 -8.09448242 218.70483398 C-5.76398259 221.3679418 -5.04421628 222.23282793 -5.25 225.6875 C-5.55945836 230.0415071 -6.82509664 233.40867197 -8.8125 237.3125 C-9.13734375 238.00730469 -9.4621875 238.70210937 -9.796875 239.41796875 C-12.91274975 245.99725812 -12.91274975 245.99725812 -15.8125 248.3125 C-18.22331238 248.67326355 -18.22331238 248.67326355 -21.11010742 248.65307617 C-22.19100143 248.65284958 -23.27189545 248.65262299 -24.38554382 248.65238953 C-26.13409416 248.62916374 -26.13409416 248.62916374 -27.91796875 248.60546875 C-29.11231033 248.60122391 -30.30665192 248.59697906 -31.53718567 248.59260559 C-35.35835144 248.57578959 -39.17899316 248.53813093 -43 248.5 C-45.58788302 248.48495699 -48.17577429 248.47126792 -50.76367188 248.45898438 C-57.11346058 248.42587645 -63.46294286 248.37564762 -69.8125 248.3125 C-69.79849655 249.38000992 -69.79849655 249.38000992 -69.78421021 250.46908569 C-69.74330709 255.85927646 -69.86425488 261.06518531 -70.6171875 266.4140625 C-70.87435547 268.26257813 -70.87435547 268.26257813 -71.13671875 270.1484375 C-71.31847656 271.39882813 -71.50023437 272.64921875 -71.6875 273.9375 C-71.86152344 275.195625 -72.03554688 276.45375 -72.21484375 277.75 C-73.0512849 283.66085082 -74.01241575 289.46463422 -75.38378906 295.2734375 C-76.12876587 298.81674404 -76.41881104 302.39871816 -76.75 306 C-77.42771766 312.73204172 -78.57478727 319.17824483 -80.09765625 325.77734375 C-80.88049295 329.64874927 -81.34407349 333.51354374 -81.75 337.4375 C-82.40465577 343.69760137 -83.44399211 349.78121338 -84.75 355.9375 C-86.91211937 366.17173215 -88.21074771 376.46106167 -89.49658203 386.83544922 C-91.07360582 399.20058319 -91.07360582 399.20058319 -92.7578125 404.0144043 C-93.87066426 407.49438447 -94.56989384 410.88877338 -95.21484375 414.484375 C-95.33716873 415.16018112 -95.45949371 415.83598724 -95.58552551 416.53227234 C-95.97809471 418.70824917 -96.36419764 420.88531419 -96.75 423.0625 C-97.01893116 424.56132859 -97.28813783 426.06010777 -97.55761719 427.55883789 C-99.06869932 435.9900559 -100.52575839 444.42891689 -101.91210938 452.8815918 C-103.58996391 463.09565684 -105.85804519 473.14518997 -108.30224609 483.20019531 C-108.76045247 485.09703818 -109.20347203 486.99753437 -109.64453125 488.8984375 C-111.6551035 497.06925625 -114.37301533 504.87103654 -117.3125 512.75 C-117.69237061 513.76908447 -118.07224121 514.78816895 -118.46362305 515.83813477 C-120.3953734 520.91560431 -122.4718271 525.79848102 -124.97265625 530.62036133 C-126.06851397 532.8283235 -126.82244374 535.08895412 -127.5625 537.4375 C-132.00844571 549.9309521 -139.90297216 560.79744647 -147.8125 571.3125 C-148.26028809 571.91126953 -148.70807617 572.51003906 -149.16943359 573.12695312 C-157.76057037 584.54922527 -166.71240134 594.48656554 -178.8125 602.3125 C-179.45574219 602.77398438 -180.09898437 603.23546875 -180.76171875 603.7109375 C-185.74482575 607.15837001 -190.95178306 608.78283715 -196.76171875 610.41796875 C-199.73704126 611.21673945 -199.73704126 611.21673945 -202.14624023 612.35180664 C-205.10623617 613.41833754 -207.38437788 613.57087424 -210.5234375 613.578125 C-211.60367188 613.58070313 -212.68390625 613.58328125 -213.796875 613.5859375 C-214.91578125 613.57820312 -216.0346875 613.57046875 -217.1875 613.5625 C-218.29867187 613.57023438 -219.40984375 613.57796875 -220.5546875 613.5859375 C-226.3836062 613.57205912 -231.31889594 613.28176812 -236.8125 611.3125 C-237.86050781 611.01279297 -237.86050781 611.01279297 -238.9296875 610.70703125 C-248.74061909 607.45852279 -255.98865655 600.33533671 -260.8125 591.3125 C-265.06153816 581.25413332 -266.21594958 568.59145352 -262.55859375 558.1484375 C-259.07805806 549.98579051 -253.73160421 544.27205211 -245.8125 540.3125 C-229.51536936 538.92812009 -229.51536936 538.92812009 -224.0625 542.8125 C-222.453125 544.21875 -222.453125 544.21875 -220.8125 546.3125 C-220.38799561 546.84182129 -219.96349121 547.37114258 -219.52612305 547.91650391 C-215.36941398 553.67694772 -215.10196471 558.73084167 -215.125 565.6875 C-215.10846635 567.65373196 -215.08412621 569.61991878 -215.05078125 571.5859375 C-215.05118408 572.44622559 -215.05158691 573.30651367 -215.05200195 574.19287109 C-215.01096192 576.52953351 -215.01096192 576.52953351 -212.8125 578.3125 C-206.77901302 578.03035852 -201.34055973 576.33744198 -196.8125 572.3125 C-194.26677603 569.1065663 -192.01106394 565.76354658 -189.8125 562.3125 C-189.41933594 561.71179688 -189.02617187 561.11109375 -188.62109375 560.4921875 C-181.94861965 549.65922956 -179.7201903 536.52659413 -176.8125 524.3125 C-176.1525 524.3125 -175.4925 524.3125 -174.8125 524.3125 C-174.71453125 523.22195313 -174.6165625 522.13140625 -174.515625 521.0078125 C-173.77255807 513.31650876 -172.83709635 505.82319551 -171 498.3125 C-168.83415175 489.33925599 -167.50667964 480.25221688 -166.1875 471.125 C-166.08335785 470.40610596 -165.9792157 469.68721191 -165.87191772 468.9465332 C-164.79387047 461.47320911 -163.76643735 453.99442971 -162.78515625 446.5078125 C-162.072233 441.11437772 -161.25484727 435.74923177 -160.36791992 430.38208008 C-158.63570063 419.81459863 -157.38535972 409.29559219 -156.5 398.625 C-155.13512469 382.37270403 -152.71851259 366.30556265 -150.23706055 350.19067383 C-150.0855806 349.20641418 -149.93410065 348.22215454 -149.7780304 347.20806885 C-149.49321865 345.36529077 -149.20618956 343.52285335 -148.91642761 341.68084717 C-148.06857871 336.23485343 -147.38547652 330.79448227 -146.8125 325.3125 C-146.1525 325.3125 -145.4925 325.3125 -144.8125 325.3125 C-144.4825 318.7125 -144.1525 312.1125 -143.8125 305.3125 C-143.1525 305.3125 -142.4925 305.3125 -141.8125 305.3125 C-141.76424072 304.49185059 -141.71598145 303.67120117 -141.66625977 302.82568359 C-141.06318755 293.46595047 -139.99568878 284.22931024 -138.75 274.9375 C-138.56147099 273.50786229 -138.37331819 272.07817492 -138.18554688 270.6484375 C-137.73217748 267.20254456 -137.27379972 263.7573414 -136.8125 260.3125 C-136.1525 260.3125 -135.4925 260.3125 -134.8125 260.3125 C-134.8434375 258.7346875 -134.8434375 258.7346875 -134.875 257.125 C-134.82322932 253.9669885 -134.48274271 251.36817345 -133.8125 248.3125 C-134.4027446 248.32138245 -134.9929892 248.33026489 -135.60112 248.3394165 C-141.7491995 248.42797008 -147.89709758 248.48826748 -154.0456543 248.53222656 C-156.33967448 248.55233106 -158.63364348 248.57961891 -160.92749023 248.61425781 C-164.22652826 248.66282559 -167.52488822 248.68548077 -170.82421875 248.703125 C-171.84835373 248.72377014 -172.87248871 248.74441528 -173.92765808 248.76568604 C-181.05339422 248.76792715 -181.05339422 248.76792715 -184.87426758 246.47558594 C-188.22005837 242.74165139 -189.16815303 240.51989303 -188.984375 235.484375 C-188.29469247 226.76929576 -185.09393228 222.29294698 -178.8125 216.3125 C-176.43867015 215.12558507 -174.92071107 215.15677133 -172.27099609 215.10717773 C-171.33017181 215.08723251 -170.38934753 215.06728729 -169.42001343 215.04673767 C-167.89339584 215.02166893 -167.89339584 215.02166893 -166.3359375 214.99609375 C-165.29555328 214.97531265 -164.25516907 214.95453156 -163.18325806 214.93312073 C-159.85140751 214.86760128 -156.5194765 214.80872908 -153.1875 214.75 C-150.93228326 214.70681706 -148.67707473 214.66320285 -146.421875 214.61914062 C-140.88550236 214.51191748 -135.34904922 214.41015554 -129.8125 214.3125 C-129.75191406 213.40886719 -129.69132813 212.50523437 -129.62890625 211.57421875 C-129.54511719 210.39472656 -129.46132813 209.21523437 -129.375 208 C-129.25318359 206.24236328 -129.25318359 206.24236328 -129.12890625 204.44921875 C-128.8125 201.3125 -128.8125 201.3125 -127.8125 198.3125 C-127.54219043 196.48083425 -127.30710933 194.64385701 -127.09375 192.8046875 C-126.96613281 191.73605469 -126.83851563 190.66742188 -126.70703125 189.56640625 C-126.44311045 187.30609448 -126.1800957 185.04567675 -125.91796875 182.78515625 C-125.79035156 181.71910156 -125.66273438 180.65304688 -125.53125 179.5546875 C-125.36012695 178.08298096 -125.36012695 178.08298096 -125.18554688 176.58154297 C-124.8125 174.3125 -124.8125 174.3125 -123.8125 173.3125 C-123.56215921 171.82078442 -123.36842844 170.31948774 -123.19921875 168.81640625 C-123.08763428 167.87321533 -122.9760498 166.93002441 -122.86108398 165.95825195 C-122.74192627 164.94077881 -122.62276855 163.92330566 -122.5 162.875 C-121.55363081 155.21496938 -120.43412152 147.65972651 -118.75 140.125 C-118.58781982 139.39031494 -118.42563965 138.65562988 -118.25854492 137.89868164 C-117.4533746 134.44065688 -116.44313412 131.4532431 -114.8125 128.3125 C-114.6578125 126.58 -114.6578125 126.58 -114.5 124.8125 C-113.9989729 119.91154399 -112.0372541 115.80542053 -110.07421875 111.328125 C-108.62118122 107.85523034 -107.58279997 104.36264115 -106.55859375 100.74609375 C-105.50950187 97.32418672 -104.14515825 94.05644425 -102.78125 90.75 C-101.86208063 88.43725126 -101.06958839 86.12001584 -100.3125 83.75 C-90.14553541 52.51743423 -64.67318518 21.06312103 -35.35546875 6.0546875 C-23.78099021 0.73082173 -12.55818284 0.09961541 0 0 Z " fill="#0F1721" transform="translate(429.8125,24.6875)"/>
<path d="M0 0 C1.20720703 -0.02900391 2.41441406 -0.05800781 3.65820312 -0.08789062 C17.72154497 -0.18676756 27.78446117 4.47795429 38.03515625 14.03515625 C48.51680337 25.37463638 48.70308716 37.76876962 48.1875 52.3125 C47.46218315 62.4907168 43.79197485 72.45171195 36.125 79.4375 C30.33153103 84.20022909 24.88220416 84.82026614 17.546875 84.6875 C9.81743315 83.82467858 4.1784681 80.11532114 -0.65625 74.15625 C-3.46830791 69.67215766 -4.08004621 65.77067319 -4.19140625 60.515625 C-4.22556641 59.22785156 -4.25972656 57.94007812 -4.29492188 56.61328125 C-4.32226741 55.2630339 -4.34895232 53.91277301 -4.375 52.5625 C-4.43275279 49.90082222 -4.49819808 47.23958101 -4.56640625 44.578125 C-4.59033447 43.40024414 -4.6142627 42.22236328 -4.63891602 41.00878906 C-4.50922436 38.39570321 -4.50922436 38.39570321 -5.8125 37.3125 C-10.80787993 36.71615232 -16.09427913 36.60618891 -20.48876953 39.36474609 C-24.42996801 42.55717667 -27.66653462 46.35389702 -30.8125 50.3125 C-31.51503906 51.18519531 -32.21757812 52.05789062 -32.94140625 52.95703125 C-37.65320596 59.58204553 -39.72986784 66.72885933 -41.76953125 74.4921875 C-42.8125 78.3125 -42.8125 78.3125 -43.86328125 80.7109375 C-45.60165965 85.47538201 -45.88946815 90.58272221 -46.4921875 95.59765625 C-47.23115573 101.26587845 -48.36880809 106.74850497 -49.74609375 112.29296875 C-51.86204433 120.91931314 -53.123507 129.56815908 -54.19555664 138.37866211 C-54.50039989 140.87827898 -54.82041477 143.37560921 -55.14257812 145.87304688 C-56.27828696 154.85308306 -57.12079054 163.76622873 -57.47973633 172.81225586 C-57.83289978 176.52707929 -58.75305477 179.73998077 -59.8125 183.3125 C-60.28547761 185.94888731 -60.71898411 188.56622262 -61.1015625 191.21484375 C-61.26378799 192.29869102 -61.26378799 192.29869102 -61.42929077 193.4044342 C-61.76972343 195.6856666 -62.10371748 197.96778612 -62.4375 200.25 C-62.66884375 201.80800618 -62.9006106 203.36594961 -63.1328125 204.92382812 C-63.69759924 208.71934449 -64.25661837 212.51566963 -64.8125 216.3125 C-64.16183563 216.30139694 -63.51117126 216.29029388 -62.84078979 216.27885437 C-56.06001532 216.1681154 -49.27949829 216.0927719 -42.49804688 216.0378418 C-39.96831831 216.01271956 -37.43866218 215.97861579 -34.90917969 215.93530273 C-31.27000037 215.87455445 -27.63178188 215.84626615 -23.9921875 215.82421875 C-22.86384491 215.79841232 -21.73550232 215.7726059 -20.57296753 215.74601746 C-11.79779645 215.74289296 -11.79779645 215.74289296 -8.09448242 218.70483398 C-5.76398259 221.3679418 -5.04421628 222.23282793 -5.25 225.6875 C-5.55945836 230.0415071 -6.82509664 233.40867197 -8.8125 237.3125 C-9.13734375 238.00730469 -9.4621875 238.70210937 -9.796875 239.41796875 C-12.91274975 245.99725812 -12.91274975 245.99725812 -15.8125 248.3125 C-18.22331238 248.67326355 -18.22331238 248.67326355 -21.11010742 248.65307617 C-22.19100143 248.65284958 -23.27189545 248.65262299 -24.38554382 248.65238953 C-26.13409416 248.62916374 -26.13409416 248.62916374 -27.91796875 248.60546875 C-29.11231033 248.60122391 -30.30665192 248.59697906 -31.53718567 248.59260559 C-35.35835144 248.57578959 -39.17899316 248.53813093 -43 248.5 C-45.58788302 248.48495699 -48.17577429 248.47126792 -50.76367188 248.45898438 C-57.11346058 248.42587645 -63.46294286 248.37564762 -69.8125 248.3125 C-69.79849655 249.38000992 -69.79849655 249.38000992 -69.78421021 250.46908569 C-69.74330709 255.85927646 -69.86425488 261.06518531 -70.6171875 266.4140625 C-70.87435547 268.26257813 -70.87435547 268.26257813 -71.13671875 270.1484375 C-71.31847656 271.39882813 -71.50023437 272.64921875 -71.6875 273.9375 C-71.86152344 275.195625 -72.03554688 276.45375 -72.21484375 277.75 C-73.0512849 283.66085082 -74.01241575 289.46463422 -75.38378906 295.2734375 C-76.12876587 298.81674404 -76.41881104 302.39871816 -76.75 306 C-77.42771766 312.73204172 -78.57478727 319.17824483 -80.09765625 325.77734375 C-80.88049295 329.64874927 -81.34407349 333.51354374 -81.75 337.4375 C-82.40465577 343.69760137 -83.44399211 349.78121338 -84.75 355.9375 C-86.91211937 366.17173215 -88.21074771 376.46106167 -89.49658203 386.83544922 C-91.07360582 399.20058319 -91.07360582 399.20058319 -92.7578125 404.0144043 C-93.87066426 407.49438447 -94.56989384 410.88877338 -95.21484375 414.484375 C-95.33716873 415.16018112 -95.45949371 415.83598724 -95.58552551 416.53227234 C-95.97809471 418.70824917 -96.36419764 420.88531419 -96.75 423.0625 C-97.01893116 424.56132859 -97.28813783 426.06010777 -97.55761719 427.55883789 C-99.06869932 435.9900559 -100.52575839 444.42891689 -101.91210938 452.8815918 C-103.58996391 463.09565684 -105.85804519 473.14518997 -108.30224609 483.20019531 C-108.76045247 485.09703818 -109.20347203 486.99753437 -109.64453125 488.8984375 C-111.6551035 497.06925625 -114.37301533 504.87103654 -117.3125 512.75 C-117.69237061 513.76908447 -118.07224121 514.78816895 -118.46362305 515.83813477 C-120.3953734 520.91560431 -122.4718271 525.79848102 -124.97265625 530.62036133 C-126.06851397 532.8283235 -126.82244374 535.08895412 -127.5625 537.4375 C-132.00844571 549.9309521 -139.90297216 560.79744647 -147.8125 571.3125 C-148.26028809 571.91126953 -148.70807617 572.51003906 -149.16943359 573.12695312 C-157.76057037 584.54922527 -166.71240134 594.48656554 -178.8125 602.3125 C-179.45574219 602.77398438 -180.09898437 603.23546875 -180.76171875 603.7109375 C-185.74482575 607.15837001 -190.95178306 608.78283715 -196.76171875 610.41796875 C-199.73704126 611.21673945 -199.73704126 611.21673945 -202.14624023 612.35180664 C-205.10623617 613.41833754 -207.38437788 613.57087424 -210.5234375 613.578125 C-211.60367188 613.58070313 -212.68390625 613.58328125 -213.796875 613.5859375 C-214.91578125 613.57820312 -216.0346875 613.57046875 -217.1875 613.5625 C-218.29867187 613.57023438 -219.40984375 613.57796875 -220.5546875 613.5859375 C-226.3836062 613.57205912 -231.31889594 613.28176812 -236.8125 611.3125 C-237.86050781 611.01279297 -237.86050781 611.01279297 -238.9296875 610.70703125 C-248.74061909 607.45852279 -255.98865655 600.33533671 -260.8125 591.3125 C-265.06153816 581.25413332 -266.21594958 568.59145352 -262.55859375 558.1484375 C-259.07805806 549.98579051 -253.73160421 544.27205211 -245.8125 540.3125 C-229.51536936 538.92812009 -229.51536936 538.92812009 -224.0625 542.8125 C-222.453125 544.21875 -222.453125 544.21875 -220.8125 546.3125 C-220.38799561 546.84182129 -219.96349121 547.37114258 -219.52612305 547.91650391 C-215.36941398 553.67694772 -215.10196471 558.73084167 -215.125 565.6875 C-215.10846635 567.65373196 -215.08412621 569.61991878 -215.05078125 571.5859375 C-215.05118408 572.44622559 -215.05158691 573.30651367 -215.05200195 574.19287109 C-215.01096192 576.52953351 -215.01096192 576.52953351 -212.8125 578.3125 C-206.77901302 578.03035852 -201.34055973 576.33744198 -196.8125 572.3125 C-194.26677603 569.1065663 -192.01106394 565.76354658 -189.8125 562.3125 C-189.41933594 561.71179688 -189.02617187 561.11109375 -188.62109375 560.4921875 C-181.94861965 549.65922956 -179.7201903 536.52659413 -176.8125 524.3125 C-176.1525 524.3125 -175.4925 524.3125 -174.8125 524.3125 C-174.71453125 523.22195313 -174.6165625 522.13140625 -174.515625 521.0078125 C-173.77255807 513.31650876 -172.83709635 505.82319551 -171 498.3125 C-168.83415175 489.33925599 -167.50667964 480.25221688 -166.1875 471.125 C-166.08335785 470.40610596 -165.9792157 469.68721191 -165.87191772 468.9465332 C-164.79387047 461.47320911 -163.76643735 453.99442971 -162.78515625 446.5078125 C-162.072233 441.11437772 -161.25484727 435.74923177 -160.36791992 430.38208008 C-158.63570063 419.81459863 -157.38535972 409.29559219 -156.5 398.625 C-155.13512469 382.37270403 -152.71851259 366.30556265 -150.23706055 350.19067383 C-150.0855806 349.20641418 -149.93410065 348.22215454 -149.7780304 347.20806885 C-149.49321865 345.36529077 -149.20618956 343.52285335 -148.91642761 341.68084717 C-148.06857871 336.23485343 -147.38547652 330.79448227 -146.8125 325.3125 C-146.1525 325.3125 -145.4925 325.3125 -144.8125 325.3125 C-144.4825 318.7125 -144.1525 312.1125 -143.8125 305.3125 C-143.1525 305.3125 -142.4925 305.3125 -141.8125 305.3125 C-141.76424072 304.49185059 -141.71598145 303.67120117 -141.66625977 302.82568359 C-141.06318755 293.46595047 -139.99568878 284.22931024 -138.75 274.9375 C-138.56147099 273.50786229 -138.37331819 272.07817492 -138.18554688 270.6484375 C-137.73217748 267.20254456 -137.27379972 263.7573414 -136.8125 260.3125 C-136.1525 260.3125 -135.4925 260.3125 -134.8125 260.3125 C-134.8434375 258.7346875 -134.8434375 258.7346875 -134.875 257.125 C-134.82322932 253.9669885 -134.48274271 251.36817345 -133.8125 248.3125 C-134.4027446 248.32138245 -134.9929892 248.33026489 -135.60112 248.3394165 C-141.7491995 248.42797008 -147.89709758 248.48826748 -154.0456543 248.53222656 C-156.33967448 248.55233106 -158.63364348 248.57961891 -160.92749023 248.61425781 C-164.22652826 248.66282559 -167.52488822 248.68548077 -170.82421875 248.703125 C-171.84835373 248.72377014 -172.87248871 248.74441528 -173.92765808 248.76568604 C-181.05339422 248.76792715 -181.05339422 248.76792715 -184.87426758 246.47558594 C-188.22005837 242.74165139 -189.16815303 240.51989303 -188.984375 235.484375 C-188.29469247 226.76929576 -185.09393228 222.29294698 -178.8125 216.3125 C-176.43867015 215.12558507 -174.92071107 215.15677133 -172.27099609 215.10717773 C-171.33017181 215.08723251 -170.38934753 215.06728729 -169.42001343 215.04673767 C-167.89339584 215.02166893 -167.89339584 215.02166893 -166.3359375 214.99609375 C-165.29555328 214.97531265 -164.25516907 214.95453156 -163.18325806 214.93312073 C-159.85140751 214.86760128 -156.5194765 214.80872908 -153.1875 214.75 C-150.93228326 214.70681706 -148.67707473 214.66320285 -146.421875 214.61914062 C-140.88550236 214.51191748 -135.34904922 214.41015554 -129.8125 214.3125 C-129.75191406 213.40886719 -129.69132813 212.50523437 -129.62890625 211.57421875 C-129.54511719 210.39472656 -129.46132813 209.21523437 -129.375 208 C-129.25318359 206.24236328 -129.25318359 206.24236328 -129.12890625 204.44921875 C-128.8125 201.3125 -128.8125 201.3125 -127.8125 198.3125 C-127.54219043 196.48083425 -127.30710933 194.64385701 -127.09375 192.8046875 C-126.96613281 191.73605469 -126.83851563 190.66742188 -126.70703125 189.56640625 C-126.44311045 187.30609448 -126.1800957 185.04567675 -125.91796875 182.78515625 C-125.79035156 181.71910156 -125.66273438 180.65304688 -125.53125 179.5546875 C-125.36012695 178.08298096 -125.36012695 178.08298096 -125.18554688 176.58154297 C-124.8125 174.3125 -124.8125 174.3125 -123.8125 173.3125 C-123.56215921 171.82078442 -123.36842844 170.31948774 -123.19921875 168.81640625 C-123.08763428 167.87321533 -122.9760498 166.93002441 -122.86108398 165.95825195 C-122.74192627 164.94077881 -122.62276855 163.92330566 -122.5 162.875 C-121.55363081 155.21496938 -120.43412152 147.65972651 -118.75 140.125 C-118.58781982 139.39031494 -118.42563965 138.65562988 -118.25854492 137.89868164 C-117.4533746 134.44065688 -116.44313412 131.4532431 -114.8125 128.3125 C-114.6578125 126.58 -114.6578125 126.58 -114.5 124.8125 C-113.9989729 119.91154399 -112.0372541 115.80542053 -110.07421875 111.328125 C-108.62118122 107.85523034 -107.58279997 104.36264115 -106.55859375 100.74609375 C-105.50950187 97.32418672 -104.14515825 94.05644425 -102.78125 90.75 C-101.86208063 88.43725126 -101.06958839 86.12001584 -100.3125 83.75 C-90.14553541 52.51743423 -64.67318518 21.06312103 -35.35546875 6.0546875 C-23.78099021 0.73082173 -12.55818284 0.09961541 0 0 Z M-29.8125 14.3125 C-30.65296875 14.7353125 -31.4934375 15.158125 -32.359375 15.59375 C-38.60956947 18.83970735 -44.69770816 22.41240312 -49.8125 27.3125 C-49.8125 27.9725 -49.8125 28.6325 -49.8125 29.3125 C-50.61107422 29.62574219 -50.61107422 29.62574219 -51.42578125 29.9453125 C-54.76712656 31.85934009 -57.31110101 34.47187317 -60 37.1875 C-60.57371338 37.76540283 -61.14742676 38.34330566 -61.73852539 38.9387207 C-71.79807024 49.26273128 -79.63477101 61.01028199 -85.3984375 74.2109375 C-86.45599297 76.53054812 -87.55172919 78.78012103 -88.7265625 81.0390625 C-94.86117083 92.8358288 -100.46172707 104.75990959 -100.8125 118.3125 C-101.4725 118.3125 -102.1325 118.3125 -102.8125 118.3125 C-103.97344456 122.09970286 -105.11340678 125.89292459 -106.25 129.6875 C-106.57548828 130.74839844 -106.90097656 131.80929688 -107.23632812 132.90234375 C-108.95046823 138.66326823 -110.22572573 144.06634239 -110.52368164 150.08056641 C-110.8125 152.3125 -110.8125 152.3125 -111.77514648 154.71533203 C-112.93976771 157.63113353 -113.38413678 160.28212313 -113.8125 163.390625 C-113.9775 164.55207031 -114.1425 165.71351563 -114.3125 166.91015625 C-114.4775 168.11542969 -114.6425 169.32070312 -114.8125 170.5625 C-116.67520071 183.99431843 -116.67520071 183.99431843 -117.87109375 189.015625 C-119.02363565 193.90744995 -119.45645614 198.81181072 -119.875 203.8125 C-120.03186939 205.59381025 -120.18941553 207.37506104 -120.34765625 209.15625 C-120.413479 209.93162109 -120.47930176 210.70699219 -120.54711914 211.50585938 C-120.91976511 215.44692474 -121.36709259 219.37908077 -121.8125 223.3125 C-122.45063629 223.29473511 -123.08877258 223.27697021 -123.74624634 223.25866699 C-130.39703477 223.08147238 -137.04715163 222.96093901 -143.69970703 222.87304688 C-146.18110392 222.83285181 -148.66231176 222.77828468 -151.14306641 222.70898438 C-154.71303931 222.61176445 -158.28050602 222.56653209 -161.8515625 222.53125 C-162.95803131 222.48995972 -164.06450012 222.44866943 -165.20449829 222.40612793 C-170.96084045 222.32971316 -170.96084045 222.32971316 -175.85565186 224.98852539 C-179.5121754 229.62435168 -180.60317466 233.45139048 -180.8125 239.3125 C-177.46633108 241.54327928 -176.41656041 241.55774037 -172.51489258 241.53955078 C-171.43399857 241.53939972 -170.35310455 241.53924866 -169.23945618 241.53909302 C-168.07375595 241.52877045 -166.90805573 241.51844788 -165.70703125 241.5078125 C-164.51268967 241.5049826 -163.31834808 241.50215271 -162.08781433 241.49923706 C-158.26677503 241.48802677 -154.44596866 241.46292037 -150.625 241.4375 C-148.03711276 241.42747131 -145.44922184 241.41834527 -142.86132812 241.41015625 C-136.51163904 241.38808465 -130.16208616 241.3545986 -123.8125 241.3125 C-123.8125 242.3025 -123.8125 243.2925 -123.8125 244.3125 C-124.4725 244.3125 -125.1325 244.3125 -125.8125 244.3125 C-125.99425781 246.21322266 -125.99425781 246.21322266 -126.1796875 248.15234375 C-126.3486734 249.85159086 -126.51796037 251.55080805 -126.6875 253.25 C-126.76613281 254.08080078 -126.84476562 254.91160156 -126.92578125 255.76757812 C-127.42195112 260.67202644 -128.22263694 265.35710377 -129.35302734 270.15258789 C-130.08562117 273.59640169 -130.37236406 277.06023025 -130.6875 280.5625 C-131.36596304 287.38234727 -132.45474812 294.03387755 -133.8125 300.75 C-135.39809574 308.59866251 -136.50337994 316.38575752 -137.21679688 324.36108398 C-137.50003275 327.51552043 -137.8065418 330.2946254 -138.8125 333.3125 C-139.1200172 336.66529172 -139.3214708 340.01869297 -139.53125 343.37890625 C-139.8125 346.3125 -139.8125 346.3125 -140.8125 348.3125 C-141.14060363 351.12524295 -141.42711608 353.93089157 -141.6875 356.75 C-142.35494869 363.58955482 -143.23801789 370.34803369 -144.375 377.125 C-145.48906506 383.78148771 -146.2233532 390.28878604 -146.50390625 397.0390625 C-146.7454494 399.60125438 -147.13012712 401.73702261 -147.74609375 404.20703125 C-149.36715577 411.15214808 -149.73150512 418.28382141 -150.3125 425.375 C-152.78774483 455.06089083 -152.78774483 455.06089083 -155.3125 464.1875 C-156.60408164 468.97470557 -157.26677228 473.70114115 -157.75 478.625 C-158.47891748 485.94741532 -159.51488553 493.18301711 -160.75 500.4375 C-160.90782959 501.39696533 -161.06565918 502.35643066 -161.22827148 503.3449707 C-162.09247274 508.29645799 -163.24766909 512.76578902 -165.12768555 517.42236328 C-166.28507944 520.61685296 -166.71518506 523.83244976 -167.25 527.1875 C-168.20381269 532.76794873 -169.55193358 537.78635607 -171.8515625 542.96484375 C-172.8936849 545.51084196 -173.54120574 548.01488314 -174.1875 550.6875 C-177.58674497 563.49312127 -185.49277916 577.38711948 -196.5625 585.125 C-202.66298426 588.31037944 -209.115477 588.4314333 -215.8125 587.3125 C-219.88006395 585.43346231 -222.12498826 582.40671372 -223.8125 578.3125 C-224.06787109 576.02587891 -224.06787109 576.02587891 -224.0859375 573.5390625 C-224.1065625 572.6315625 -224.1271875 571.7240625 -224.1484375 570.7890625 C-224.17437092 568.89592319 -224.19266485 567.00266303 -224.203125 565.109375 C-224.34894885 559.38983971 -224.82372726 555.75230005 -228.8125 551.3125 C-232.81453457 548.5759309 -237.13097004 548.65301491 -241.8125 549.3125 C-246.89149318 551.89991162 -250.23803185 555.32839972 -252.89453125 560.36328125 C-255.39154271 568.38559467 -255.74469777 580.98322988 -251.875 588.5625 C-246.07778832 596.69835957 -237.9801977 602.744478 -228.203125 604.96484375 C-219.28023676 606.26245331 -210.55036659 605.27370452 -201.8125 603.3125 C-201.8125 602.6525 -201.8125 601.9925 -201.8125 601.3125 C-201.25304687 601.27253906 -200.69359375 601.23257813 -200.1171875 601.19140625 C-184.11693785 599.10777245 -168.41144168 584.30578216 -158.96484375 572.16015625 C-157.89943359 570.75056641 -157.89943359 570.75056641 -156.8125 569.3125 C-156.05066406 568.34183594 -155.28882813 567.37117187 -154.50390625 566.37109375 C-145.18116732 554.31284627 -139.04410201 542.07403789 -134.09375 527.71484375 C-132.86254492 524.44539368 -131.37482555 521.43290565 -129.8125 518.3125 C-129.26728821 516.70210592 -128.76393928 515.07665453 -128.3125 513.4375 C-127.40687659 510.25828518 -126.41505223 507.19388058 -125.1875 504.125 C-123.78557995 500.52111128 -123.21258197 497.15328691 -122.8125 493.3125 C-122.1525 493.3125 -121.4925 493.3125 -120.8125 493.3125 C-118.53582556 484.51783376 -116.44870277 475.73936378 -114.7265625 466.81640625 C-113.5409915 460.83109449 -112.15651445 454.88874698 -110.8125 448.9375 C-108.76989777 439.87867767 -106.91150624 430.83894307 -105.453125 421.66796875 C-104.82996003 418.40395226 -103.87150675 415.45693542 -102.8125 412.3125 C-100.78043828 403.05645887 -99.38123178 393.72632986 -98.2421875 384.32421875 C-97.8125 381.3125 -97.8125 381.3125 -96.8125 378.3125 C-96.74447033 376.58454648 -96.72754355 374.85414635 -96.75 373.125 C-96.75902344 372.22394531 -96.76804687 371.32289063 -96.77734375 370.39453125 C-96.78894531 369.70746094 -96.80054688 369.02039063 -96.8125 368.3125 C-96.1525 368.3125 -95.4925 368.3125 -94.8125 368.3125 C-94.70292969 367.19875 -94.59335937 366.085 -94.48046875 364.9375 C-93.56655645 356.01799168 -92.31977887 347.31758152 -90.57128906 338.52099609 C-89.82422485 334.55479416 -89.33845921 330.58752231 -88.90234375 326.57421875 C-87.89056096 317.60634502 -86.60929312 308.68725268 -85.26293945 299.76416016 C-84.87436695 297.18329531 -84.49263553 294.60147828 -84.11132812 292.01953125 C-82.7821919 283.11270964 -81.27197447 274.28510023 -79.44848633 265.46630859 C-78.69155524 261.71274398 -78.11323666 257.98489625 -77.625 254.1875 C-77.46644531 252.98867188 -77.30789063 251.78984375 -77.14453125 250.5546875 C-76.85919758 247.76848811 -76.78725242 245.10755555 -76.8125 242.3125 C-75.8110495 242.32915459 -75.8110495 242.32915459 -74.78936768 242.34614563 C-67.84669357 242.45668013 -60.90426897 242.53214322 -53.9609375 242.5871582 C-51.36903737 242.61231755 -48.77720828 242.64644851 -46.18554688 242.68969727 C-42.46206139 242.75028231 -38.73951305 242.77869646 -35.015625 242.80078125 C-33.27481659 242.83949089 -33.27481659 242.83949089 -31.49884033 242.87898254 C-25.24730518 243.06372093 -25.24730518 243.06372093 -20.14257812 239.92456055 C-19.70365234 239.06258057 -19.26472656 238.20060059 -18.8125 237.3125 C-18.07773437 236.18328125 -18.07773437 236.18328125 -17.328125 235.03125 C-16.91046875 234.2990625 -16.4928125 233.566875 -16.0625 232.8125 C-15.63453125 232.0803125 -15.2065625 231.348125 -14.765625 230.59375 C-13.49123942 227.95564072 -13.49123942 227.95564072 -13.8125 223.3125 C-33.9425 223.3125 -54.0725 223.3125 -74.8125 223.3125 C-73.8225 219.6825 -72.8325 216.0525 -71.8125 212.3125 C-71.3312328 208.61912752 -71.3312328 208.61912752 -71.25 205.25 C-71.09648334 201.3376513 -70.71515789 197.68801992 -69.87109375 193.875 C-68.53334868 187.49743402 -68.10707923 181.05211066 -67.60812378 174.56762695 C-66.23324945 156.89959431 -64.30075043 139.29382648 -60.72265625 121.91796875 C-59.84132305 117.62495401 -59.4216104 113.42259379 -59.15625 109.05078125 C-58.8125 106.3125 -58.8125 106.3125 -57.86328125 103.03125 C-56.68553578 98.86316937 -56.09080802 94.78069686 -55.5 90.5 C-52.03252036 67.45477007 -44.98620175 46.0561768 -25.8125 31.3125 C-19.35376172 27.1789075 -11.25970462 27.29222493 -3.8125 28.3125 C-0.10637371 30.35412045 1.83684466 31.786517 4.1875 35.3125 C4.50634766 38.40698242 4.50634766 38.40698242 4.6015625 42.16796875 C4.63061172 43.16042351 4.63061172 43.16042351 4.6602478 44.17292786 C4.71992687 46.28182164 4.76638087 48.39077037 4.8125 50.5 C4.85069066 51.93166415 4.88974303 53.36330559 4.9296875 54.79492188 C5.02561773 58.30057312 5.10969197 61.80639445 5.1875 65.3125 C5.8475 65.3125 6.5075 65.3125 7.1875 65.3125 C7.290625 66.075625 7.39375 66.83875 7.5 67.625 C8.25337538 70.57001284 8.74043098 71.56459356 11.1875 73.3125 C16.47989352 74.92962024 21.55196468 74.82007993 26.8125 73.1875 C33.1076874 69.69017366 36.7024396 63.95449376 39.1875 57.3125 C39.70072411 54.18464837 39.71403173 51.16318838 39.625 48 C39.61033691 47.16621826 39.59567383 46.33243652 39.58056641 45.47338867 C39.22685104 33.88076191 36.65460807 25.46988067 28.1484375 17.37109375 C19.99609777 10.47185218 11.36731775 8.78632903 0.875 9 C-0.03781738 9.0105542 -0.95063477 9.0211084 -1.89111328 9.03198242 C-11.57183727 9.22114599 -21.06572994 9.77713775 -29.8125 14.3125 Z " fill="#D7D7D8" transform="translate(429.8125,24.6875)"/>
<path d="M0 0 C2.33856501 0.95004204 3.40719268 1.8593089 5 3.8125 C6.15851863 9.67324129 4.66704699 14.57365769 2 19.8125 C1.66355469 20.51890625 1.32710938 21.2253125 0.98046875 21.953125 C-1.67928201 27.49178201 -1.67928201 27.49178201 -4 29.8125 C-6.29055786 30.05300903 -6.29055786 30.05300903 -9.18408203 30.03955078 C-10.26505157 30.03939972 -11.34602112 30.03924866 -12.45974731 30.03909302 C-13.63060883 30.02877045 -14.80147034 30.01844788 -16.0078125 30.0078125 C-17.20356903 30.0049826 -18.39932556 30.00215271 -19.63131714 29.99923706 C-23.46264519 29.98801305 -27.29374222 29.96290431 -31.125 29.9375 C-33.71744455 29.92747308 -36.30989275 29.91834673 -38.90234375 29.91015625 C-45.26830842 29.88806646 -51.63413771 29.85456706 -58 29.8125 C-58 29.4825 -58 29.1525 -58 28.8125 C-56.35 28.4825 -54.7 28.1525 -53 27.8125 C-56.96 27.4825 -60.92 27.1525 -65 26.8125 C-65 28.4625 -65 30.1125 -65 31.8125 C-65.33 31.8125 -65.66 31.8125 -66 31.8125 C-66 29.5025 -66 27.1925 -66 24.8125 C-65.33458694 24.81773682 -64.66917389 24.82297363 -63.9835968 24.82836914 C-57.05630865 24.87506407 -50.13067977 24.86604836 -43.20336914 24.82470703 C-40.61841353 24.81659711 -38.03337275 24.82268323 -35.44848633 24.84326172 C-31.7314468 24.87038818 -28.01770301 24.84642914 -24.30078125 24.8125 C-23.14540359 24.8319165 -21.99002594 24.85133301 -20.79963684 24.87133789 C-14.96557155 24.93345459 -14.96557155 24.93345459 -10.19223022 22.05932617 C-8.90946297 20.02121254 -7.93841676 18.02593304 -7 15.8125 C-6.401875 14.925625 -5.80375 14.03875 -5.1875 13.125 C-3.61932943 10.50445737 -3.61932943 10.50445737 -4 5.8125 C-33.205 5.3175 -33.205 5.3175 -63 4.8125 C-62.67 4.1525 -62.34 3.4925 -62 2.8125 C-61.12601562 2.81773682 -60.25203125 2.82297363 -59.3515625 2.82836914 C-37.23461472 2.94291432 -37.23461472 2.94291432 -15.125 2.4375 C-14.135 2.40664307 -13.145 2.37578613 -12.125 2.34399414 C-10.76761719 2.28586548 -10.76761719 2.28586548 -9.3828125 2.2265625 C-8.21322998 2.17943115 -8.21322998 2.17943115 -7.02001953 2.13134766 C-4.17235054 1.68186062 -2.93092731 -0.27477443 0 0 Z " fill="#E2E2E2" transform="translate(419,242.1875)"/>
<path d="M0 0 C16.5 0 33 0 50 0 C50 0.33 50 0.66 50 1 C49.14450562 1.03758423 49.14450562 1.03758423 48.27172852 1.07592773 C45.70173843 1.19156549 43.13214473 1.31443624 40.5625 1.4375 C39.66466797 1.47681641 38.76683594 1.51613281 37.84179688 1.55664062 C36.98779297 1.59853516 36.13378906 1.64042969 35.25390625 1.68359375 C34.06776733 1.73858032 34.06776733 1.73858032 32.85766602 1.79467773 C30.98598559 1.80563257 30.98598559 1.80563257 30 3 C35.445 3.495 35.445 3.495 41 4 C41 4.33 41 4.66 41 5 C25.16 5 9.32 5 -7 5 C-7.33 4.34 -7.66 3.68 -8 3 C-3.545 2.505 -3.545 2.505 1 2 C0.67 1.34 0.34 0.68 0 0 Z " fill="#E4E5E5" transform="translate(255,267)"/>
<path d="M0 0 C0.33 0 0.66 0 1 0 C1 3.63 1 7.26 1 11 C14.2 11 27.4 11 41 11 C41 11.33 41 11.66 41 12 C28.79 12 16.58 12 4 12 C4 23.22 4 34.44 4 46 C3.67 46 3.34 46 3 46 C2.67 35.44 2.34 24.88 2 14 C1.01 14.66 0.02 15.32 -1 16 C-0.34 16 0.32 16 1 16 C0.6875 17.875 0.6875 17.875 0 20 C-0.99 20.66 -1.98 21.32 -3 22 C-2.24984418 14.62346781 -1.16558465 7.32168224 0 0 Z " fill="#0E1E2E" transform="translate(334,436)"/>
<path d="M0 0 C16.17 0 32.34 0 49 0 C49 1.65 49 3.3 49 5 C48.01 4.67 47.02 4.34 46 4 C46.33 3.34 46.66 2.68 47 2 C46.16101669 2.00666183 46.16101669 2.00666183 45.30508423 2.01345825 C39.49801176 2.05761149 33.69098675 2.08783294 27.88378906 2.10986328 C25.71482406 2.11993789 23.54587269 2.13359798 21.37695312 2.15087891 C18.26428874 2.17506323 15.15180349 2.18646832 12.0390625 2.1953125 C11.065065 2.20563507 10.0910675 2.21595764 9.08755493 2.22659302 C8.18677216 2.22674408 7.28598938 2.22689514 6.35791016 2.22705078 C5.16544174 2.23371262 5.16544174 2.23371262 3.94888306 2.24050903 C2 2 2 2 0 0 Z " fill="#272A2F" transform="translate(247,273)"/>
<path d="M0 0 C0.33 0 0.66 0 1 0 C1.48350422 7.89723556 -0.32335279 15.33532703 -2 23 C-2.66 22.67 -3.32 22.34 -4 22 C-3.71781919 19.08213036 -3.42465873 16.166082 -3.125 13.25 C-3.04636719 12.425 -2.96773438 11.6 -2.88671875 10.75 C-2.80292969 9.95078125 -2.71914063 9.1515625 -2.6328125 8.328125 C-2.55949707 7.5949707 -2.48618164 6.86181641 -2.41064453 6.10644531 C-1.96110247 3.80047095 -1.1362627 2.04608159 0 0 Z " fill="#45484B" transform="translate(350,279)"/>
<path d="M0 0 C0.33 0 0.66 0 1 0 C0.24984418 7.37653219 -0.83441535 14.67831776 -2 22 C-2.66 21.67 -3.32 21.34 -4 21 C-3.71766639 18.24874911 -3.42452667 15.49938663 -3.125 12.75 C-3.04636719 11.97269531 -2.96773438 11.19539063 -2.88671875 10.39453125 C-2.09573623 3.27568856 -2.09573623 3.27568856 0 0 Z " fill="#1F2429" transform="translate(339,353)"/>
<path d="M0 0 C0.33 0 0.66 0 1 0 C1.75886742 5.25369752 2.15223858 9.75091314 1 15 C1 15.66 1 16.32 1 17 C-0.10526098 19.52631081 -1.0276801 21.0276801 -3 23 C-2.33742578 15.27577951 -1.23535374 7.65199697 0 0 Z " fill="#C1C2C3" transform="translate(333,393)"/>
<path d="M0 0 C0.33 0 0.66 0 1 0 C0.98839844 0.75925781 0.97679687 1.51851563 0.96484375 2.30078125 C0.95582031 3.29464844 0.94679688 4.28851563 0.9375 5.3125 C0.92589844 6.29863281 0.91429687 7.28476562 0.90234375 8.30078125 C0.87670138 11.09963849 0.87670138 11.09963849 2 14 C1.01 14.66 0.02 15.32 -1 16 C-0.34 16 0.32 16 1 16 C0.6875 17.875 0.6875 17.875 0 20 C-0.99 20.66 -1.98 21.32 -3 22 C-2.24984418 14.62346781 -1.16558465 7.32168224 0 0 Z " fill="#48525F" transform="translate(334,436)"/>
<path d="M0 0 C0.33 0 0.66 0 1 0 C1.0272616 2.04159095 1.04651345 4.08328963 1.0625 6.125 C1.07410156 7.26195312 1.08570313 8.39890625 1.09765625 9.5703125 C1.005327 12.8129156 0.61389906 15.81932612 0 19 C-0.66 19 -1.32 19 -2 19 C-2.24794402 12.4294834 -1.32388229 6.43028541 0 0 Z " fill="#CFCFD1" transform="translate(297,308)"/>
<path d="M0 0 C4.875 0.875 4.875 0.875 6 2 C6.08726223 3.78071246 6.10699041 5.5648314 6.09765625 7.34765625 C6.09282227 8.96704102 6.09282227 8.96704102 6.08789062 10.61914062 C6.07951172 11.75544922 6.07113281 12.89175781 6.0625 14.0625 C6.05798828 15.20267578 6.05347656 16.34285156 6.04882812 17.51757812 C6.03699747 20.34510351 6.0205141 23.1725264 6 26 C5.67 26 5.34 26 5 26 C5 18.41 5 10.82 5 3 C2.03 2.505 2.03 2.505 -1 2 C-0.67 1.34 -0.34 0.68 0 0 Z " fill="#33363B" transform="translate(420,61)"/>
<path d="M0 0 C0.33 0 0.66 0 1 0 C2.73538358 15.00439338 2.73538358 15.00439338 -2 21 C-1.49656013 13.97326485 -0.95812032 6.98059091 0 0 Z " fill="#B1B2B4" transform="translate(345,314)"/>
<path d="M0 0 C0.33 0 0.66 0 1 0 C0.85820962 2.22942748 0.71140302 4.45853628 0.5625 6.6875 C0.48128906 7.92886719 0.40007812 9.17023438 0.31640625 10.44921875 C0.05508683 13.38180337 -0.34798379 16.13441617 -1 19 C-1.33 19 -1.66 19 -2 19 C-3.93129062 5.89693593 -3.93129062 5.89693593 0 0 Z " fill="#A8AAAC" transform="translate(310,225)"/>
<path d="M0 0 C0.33 0 0.66 0 1 0 C1.10854617 2.39706123 1.18753157 4.78915838 1.25 7.1875 C1.28351563 7.86103516 1.31703125 8.53457031 1.3515625 9.22851562 C1.42334472 12.90735421 1.09429473 14.85095978 -0.890625 17.98828125 C-3 20 -3 20 -5 20 C-4.80664062 19.47792969 -4.61328125 18.95585938 -4.4140625 18.41796875 C-2.2712215 12.36073009 -1.00711777 6.33891775 0 0 Z " fill="#4A4E54" transform="translate(477,77)"/>
<path d="M0 0 C0.33 0 0.66 0 1 0 C0.67 4.62 0.34 9.24 0 14 C-0.33 14 -0.66 14 -1 14 C-1 11.69 -1 9.38 -1 7 C-1.66 7 -2.32 7 -3 7 C-3 6.34 -3 5.68 -3 5 C-6.96 5 -10.92 5 -15 5 C-15 4.67 -15 4.34 -15 4 C-12.87506859 3.97306425 -10.75004088 3.95363372 -8.625 3.9375 C-7.44164062 3.92589844 -6.25828125 3.91429687 -5.0390625 3.90234375 C-2 4 -2 4 0 5 C0 3.35 0 1.7 0 0 Z " fill="#3C444E" transform="translate(288,316)"/>
<path d="M0 0 C0.33 0 0.66 0 1 0 C1.05382106 2.62527189 1.09358313 5.24944713 1.125 7.875 C1.14175781 8.62136719 1.15851563 9.36773437 1.17578125 10.13671875 C1.1933959 12.09194461 1.10320189 14.04742021 1 16 C0.34 16.66 -0.32 17.32 -1 18 C-1.33 17.67 -1.66 17.34 -2 17 C-1.93535361 14.89311528 -1.79792222 12.78827135 -1.625 10.6875 C-1.53476562 9.53636719 -1.44453125 8.38523437 -1.3515625 7.19921875 C-1.07519056 4.6842341 -0.70497191 2.41960698 0 0 Z " fill="#DFDFE0" transform="translate(272,441)"/>
<path d="M0 0 C0.33 0 0.66 0 1 0 C1.19406478 1.64507218 1.38007935 3.29109594 1.5625 4.9375 C1.66691406 5.85402344 1.77132813 6.77054687 1.87890625 7.71484375 C1.91886719 8.46894531 1.95882813 9.22304688 2 10 C1.67 10.33 1.34 10.66 1 11 C1.0644582 12.99820432 1.13264472 14.99686587 1.2578125 16.9921875 C0.92782782 19.56206818 -0.04899384 20.37586398 -2 22 C-1.46589137 14.64748331 -0.86859084 7.32097997 0 0 Z " fill="#9FA1A2" transform="translate(283,350)"/>
<path d="M0 0 C0.33 0 0.66 0 1 0 C1.21432579 6.64409958 0.51233701 12.53205867 -1 19 C-2.82711172 12.27622885 -1.84441349 6.57072304 0 0 Z " fill="#B6B7B9" transform="translate(268,520)"/>
<path d="M0 0 C0.33 0 0.66 0 1 0 C0.67 4.95 0.34 9.9 0 15 C-2.03367397 10.93265206 -2.35843127 9.39078301 -2 5 C-1 2.125 -1 2.125 0 0 Z " fill="#3B3E43" transform="translate(270,445)"/>
<path d="M0 0 C0.33 0 0.66 0 1 0 C0.88601335 1.62580966 0.75844341 3.25067157 0.625 4.875 C0.52058594 6.23238281 0.52058594 6.23238281 0.4140625 7.6171875 C0 10 0 10 -2 12 C-2.05422947 10.5629191 -2.09289723 9.12524538 -2.125 7.6875 C-2.14820313 6.88699219 -2.17140625 6.08648437 -2.1953125 5.26171875 C-2 3 -2 3 0 0 Z " fill="#C7C9CA" transform="translate(302,282)"/>
<path d="M0 0 C1.28497537 3.85492611 0.4052209 5.40346836 -0.9375 9.1875 C-1.31777344 10.27417969 -1.69804687 11.36085937 -2.08984375 12.48046875 C-2.39019531 13.31191406 -2.69054687 14.14335937 -3 15 C-3.66 14.67 -4.32 14.34 -5 14 C-3.45730076 9.27934033 -1.92205381 4.58335908 0 0 Z " fill="#E3E3E4" transform="translate(327,140)"/>
<path d="M0 0 C0.66 0.33 1.32 0.66 2 1 C0.02 3.31 -1.96 5.62 -4 8 C-4.99 7.34 -5.98 6.68 -7 6 C-4.69 4.02 -2.38 2.04 0 0 Z " fill="#C8C9CA" transform="translate(180,567)"/>
<path d="M0 0 C0.66 0 1.32 0 2 0 C2.08131463 1.43655854 2.13933559 2.8744483 2.1875 4.3125 C2.23970703 5.51326172 2.23970703 5.51326172 2.29296875 6.73828125 C1.93801608 9.47851584 1.10633718 10.29171079 -1 12 C-1.08159574 7.83861737 -0.98248524 4.0527516 0 0 Z " fill="#B3B4B6" transform="translate(266,479)"/>
<path d="M0 0 C0.33 0 0.66 0 1 0 C1.11138159 5.45769811 0.91657981 10.61509359 0 16 C-0.33 16 -0.66 16 -1 16 C-1 13.36 -1 10.72 -1 8 C-1.66 8 -2.32 8 -3 8 C-3 7.34 -3 6.68 -3 6 C-2.01 6 -1.02 6 0 6 C0 4.02 0 2.04 0 0 Z " fill="#5D646B" transform="translate(272,429)"/>
<path d="M0 0 C0.33 0 0.66 0 1 0 C1.144375 0.928125 1.28875 1.85625 1.4375 2.8125 C1.92100111 6.00725111 1.92100111 6.00725111 3 9 C1.68 9.99 0.36 10.98 -1 12 C-1.08159574 7.83861737 -0.98248524 4.0527516 0 0 Z " fill="#A4A5A7" transform="translate(268,464)"/>
<path d="M0 0 C0.33 0 0.66 0 1 0 C0.67 4.62 0.34 9.24 0 14 C-2.02133559 9.95732881 -2.36385668 8.36628017 -2 4 C-1 1.625 -1 1.625 0 0 Z " fill="#4B4E52" transform="translate(285,336)"/>
<path d="M0 0 C0.33 0 0.66 0 1 0 C1 2.64 1 5.28 1 8 C0.34 8 -0.32 8 -1 8 C-1 9.65 -1 11.3 -1 13 C-1.66 13 -2.32 13 -3 13 C-2.88490339 11.58249437 -2.75746342 10.16598831 -2.625 8.75 C-2.55539062 7.96109375 -2.48578125 7.1721875 -2.4140625 6.359375 C-1.98492887 3.914123 -1.21399362 2.15163097 0 0 Z " fill="#32363B" transform="translate(350,279)"/>
<path d="M0 0 C0.33 0 0.66 0 1 0 C0.67 4.95 0.34 9.9 0 15 C-0.33 15 -0.66 15 -1 15 C-1.33 11.37 -1.66 7.74 -2 4 C-1.34 4 -0.68 4 0 4 C0 2.68 0 1.36 0 0 Z " fill="#A2A5A6" transform="translate(357,291)"/>
<path d="M0 0 C0.33 0 0.66 0 1 0 C0.67 4.29 0.34 8.58 0 13 C-0.33 13 -0.66 13 -1 13 C-1.33 9.7 -1.66 6.4 -2 3 C-1.34 3 -0.68 3 0 3 C0 2.01 0 1.02 0 0 Z " fill="#9FA1A3" transform="translate(288,379)"/>
<path d="M0 0 C0.33 0 0.66 0 1 0 C1 1.65 1 3.3 1 5 C1.99 5.33 2.98 5.66 4 6 C3.54625 6.433125 3.0925 6.86625 2.625 7.3125 C0.79975666 9.10798342 0.79975666 9.10798342 -1 12 C-0.67 8.04 -0.34 4.08 0 0 Z " fill="#4A525D" transform="translate(354,316)"/>
<path d="M0 0 C0.33 0 0.66 0 1 0 C1.19412181 1.47831221 1.38012131 2.95769316 1.5625 4.4375 C1.66691406 5.26121094 1.77132813 6.08492187 1.87890625 6.93359375 C1.91886719 7.61550781 1.95882813 8.29742187 2 9 C1.67 9.33 1.34 9.66 1 10 C0.63239269 12.32817964 0.29758419 14.6618385 0 17 C-0.33 17 -0.66 17 -1 17 C-1.12036664 11.22240116 -0.8320582 5.72040011 0 0 Z " fill="#616366" transform="translate(375,160)"/>
<path d="M0 0 C0.33 0 0.66 0 1 0 C0.67 2.97 0.34 5.94 0 9 C-0.66 9 -1.32 9 -2 9 C-1.125 1.125 -1.125 1.125 0 0 Z " fill="#2F3338" transform="translate(339,353)"/>
<path d="M0 0 C0.33 0 0.66 0 1 0 C1.33 3.3 1.66 6.6 2 10 C1.34 10 0.68 10 0 10 C-0.33 10.66 -0.66 11.32 -1 12 C-0.67 8.04 -0.34 4.08 0 0 Z " fill="#5A5D61" transform="translate(304,269)"/>
<path d="M0 0 C0.66 0.99 1.32 1.98 2 3 C0.7260411 5.03833424 -0.61061923 7.03852126 -2 9 C-2.66 9 -3.32 9 -4 9 C-2.80100302 5.9168649 -1.52299523 2.93720508 0 0 Z " fill="#C8C9C9" transform="translate(412,258)"/>
<path d="M0 0 C0.33 0 0.66 0 1 0 C1.36923077 7.50769231 1.36923077 7.50769231 -0.5 10 C-0.995 10.33 -1.49 10.66 -2 11 C-2.28571429 3.57142857 -2.28571429 3.57142857 0 0 Z " fill="#B3B5B7" transform="translate(337,418)"/>
<path d="M0 0 C0.99 1.32 1.98 2.64 3 4 C1.84826645 6.46800047 0.95216435 8.04783565 -1 10 C-0.67 6.7 -0.34 3.4 0 0 Z " fill="#A0A2A4" transform="translate(331,406)"/>
<path d="M0 0 C-1.98 0.33 -3.96 0.66 -6 1 C-6.33 1.99 -6.66 2.98 -7 4 C-8.32 3.34 -9.64 2.68 -11 2 C-3.57142857 -1.57142857 -3.57142857 -1.57142857 0 0 Z " fill="#A4A6A7" transform="translate(405,29)"/>
<path d="M0 0 C5.75 1.875 5.75 1.875 8 3 C8 3.66 8 4.32 8 5 C4.33776842 4.50510384 2.33006074 3.94323463 0 1 C0 0.67 0 0.34 0 0 Z " fill="#292D32" transform="translate(191,623)"/>
</svg>
